<svg width="101" height="143" viewBox="0 0 101 143" fill="none" xmlns="http://www.w3.org/2000/svg">
    <path d="M12.3844 14.2996L9.17969 13.3582L11.8503 4.01106C12.1934 2.81221 12.9312 1.76434 13.9443 1.03726C14.9574 0.31018 16.1863 -0.053501 17.4319 0.00515265L89.3513 4.77219C90.5998 4.84563 91.5679 6.01402 91.8083 7.74324L92.4759 12.9175L89.1377 13.3649L88.47 8.19056V8.05703L17.2316 3.34341C16.7391 3.33498 16.258 3.49234 15.8657 3.79021C15.4734 4.08808 15.1926 4.50917 15.0684 4.98583L12.3844 14.2996Z" fill="#A0A0A0"/>
    <path d="M99.0323 27.4184H2.56998C2.28004 27.4182 1.99422 27.3498 1.7356 27.2187C1.47697 27.0876 1.25278 26.8976 1.08112 26.664C0.909172 26.4247 0.795998 26.1483 0.750761 25.8572C0.705523 25.566 0.729494 25.2683 0.820732 24.9882L4.21908 14.6529C4.46326 13.9106 4.93271 13.2629 5.56212 12.7998C6.19153 12.3367 6.94961 12.0813 7.73093 12.0691H93.858C94.6393 12.0813 95.3974 12.3367 96.0268 12.7998C96.6562 13.2629 97.1257 13.9106 97.3699 14.6529L100.768 24.9815C100.859 25.2616 100.883 25.5593 100.838 25.8505C100.793 26.1416 100.68 26.418 100.508 26.6573C100.34 26.8919 100.118 27.0833 99.8618 27.2156C99.6052 27.3479 99.321 27.4174 99.0323 27.4184ZM4.63302 24.0801H96.9693L94.1985 15.6944C94.1758 15.6187 94.1314 15.5512 94.071 15.5002C94.0105 15.4492 93.9365 15.417 93.858 15.4074H7.73093C7.65242 15.417 7.57842 15.4492 7.51796 15.5002C7.45749 15.5512 7.41318 15.6187 7.39042 15.6944L4.63302 24.0801Z" fill="#A0A0A0"/>
    <path d="M78.8455 142.582H22.7628C21.891 142.58 21.0498 142.261 20.3971 141.683C19.7443 141.105 19.3249 140.309 19.2176 139.444L5.34375 26.0433L8.68201 25.6427L22.5158 139.037C22.5223 139.094 22.5498 139.147 22.593 139.185C22.6361 139.223 22.6918 139.244 22.7494 139.244H78.8322C78.8898 139.244 78.9455 139.223 78.9886 139.185C79.0318 139.147 79.0593 139.094 79.0658 139.037L92.9463 25.616L96.2846 26.0166L82.4041 139.444C82.2965 140.311 81.8751 141.109 81.2196 141.687C80.564 142.265 79.7196 142.584 78.8455 142.582Z" fill="#A0A0A0"/>
    <path d="M91.1013 54.9587H10.5625L17.486 111.482H84.1711L91.1013 54.9587Z" fill="#A0A0A0"/>
    <path d="M50.8295 104.921C62.8134 104.921 72.5282 95.2057 72.5282 83.2219C72.5282 71.238 62.8134 61.5232 50.8295 61.5232C38.8457 61.5232 29.1309 71.238 29.1309 83.2219C29.1309 95.2057 38.8457 104.921 50.8295 104.921Z" fill="white"/>
</svg>
